<svg id="Layer_1" data-name="Layer 1" xmlns="http://www.w3.org/2000/svg" viewBox="0 0 700 500"><defs><style>.cls-1,.cls-2,.cls-3{fill:none;stroke:#000;stroke-miterlimit:10;opacity:0.5;}.cls-1{stroke-width:5px;}.cls-3{stroke-width:3px;}</style></defs><title>Artboard 1</title><line class="cls-1" y1="250" x2="700" y2="250"/><line class="cls-2" y1="271" x2="700" y2="271"/><line class="cls-2" y1="229.5" x2="700" y2="229.5"/><line class="cls-2" y1="292.5" x2="700" y2="292.5"/><line class="cls-2" y1="313.5" x2="700" y2="313.5"/><line class="cls-2" y1="334.5" x2="700" y2="334.5"/><line class="cls-3" y1="355.5" x2="700" y2="355.5"/><line class="cls-2" y1="376.5" x2="700" y2="376.5"/><line class="cls-2" y1="397.5" x2="700" y2="397.5"/><line class="cls-2" y1="418.5" x2="700" y2="418.5"/><line class="cls-2" y1="439.5" x2="700" y2="439.5"/><line class="cls-2" y1="460.5" x2="700" y2="460.5"/><line class="cls-2" y1="481.5" x2="700" y2="481.5"/><line class="cls-2" y1="208.5" x2="700" y2="208.5"/><line class="cls-2" y1="187.5" x2="700" y2="187.5"/><line class="cls-2" y1="166.5" x2="700" y2="166.5"/><line class="cls-2" y1="145.5" x2="700" y2="145.5"/><line class="cls-2" y1="124.5" x2="700" y2="124.5"/><line class="cls-3" y1="103.5" x2="700" y2="103.5"/><line class="cls-2" y1="82.5" x2="700" y2="82.5"/><line class="cls-2" y1="61.5" x2="700" y2="61.5"/><line class="cls-2" y1="40.5" x2="700" y2="40.5"/><line class="cls-2" y1="19.5" x2="700" y2="19.5"/></svg>